HIERARCHY
ROOT pelvis
{
  OFFSET 0 100 0
  CHANNELS 6 Xposition Yposition Zposition Zrotation Xrotation Yrotation
  JOINT pelvis_right_femur
  {
    OFFSET -10.78128 -3.44521 -0.5502486
    CHANNELS 3 Zrotation Xrotation Yrotation
    JOINT right_femur_tibia
    {
      OFFSET -0.8047443 -44.0398 -0.1307829
      CHANNELS 3 Zrotation Xrotation Yrotation
      JOINT right_tibia_foot
      {
        OFFSET 3.006224 -47.83518 -5
        CHANNELS 3 Zrotation Xrotation Yrotation
        End Site
        {
          OFFSET 0 -5 15
        }
      }
    }
  }
  JOINT pelvis_left_femur
  {
    OFFSET 10.78128 -3.44521 -0.5502486
    CHANNELS 3 Zrotation Xrotation Yrotation
    JOINT left_femur_tibia
    {
      OFFSET 0.8047443 -44.0398 -0.1307829
      CHANNELS 3 Zrotation Xrotation Yrotation
      JOINT left_tibia_foot
      {
        OFFSET -4.370144 -48.10324 -4.275266
        CHANNELS 3 Zrotation Xrotation Yrotation
        End Site
        {
          OFFSET 0 -5 15
        }
      }
    }
  }
  JOINT pelvis_spine1
  {
    OFFSET 0 6.468898 -3.129235
    CHANNELS 3 Zrotation Xrotation Yrotation
    JOINT spine1
    {
      OFFSET 0 23.15396 4.99043
      CHANNELS 3 Zrotation Xrotation Yrotation
      JOINT spine2
      {
        OFFSET 0 20.79997 -5.064912
        CHANNELS 3 Zrotation Xrotation Yrotation
        JOINT neck
        {
          OFFSET 0 14.38658 9.616178
          CHANNELS 3 Zrotation Xrotation Yrotation
          End Site
          {
            OFFSET 0 20 0
          }
        }
      }
      JOINT right_manubrium
      {
        OFFSET -5.722621 16.35077 3.967754
        CHANNELS 3 Zrotation Xrotation Yrotation
        JOINT right_clavicle
        {
          OFFSET -13.16364 1.694482 -4.693211
          CHANNELS 3 Zrotation Xrotation Yrotation
          JOINT right_humerus
          {
            OFFSET -28.5034 -0.3100689 -2.792744
            CHANNELS 3 Zrotation Xrotation Yrotation
            JOINT right_radius
            {
              OFFSET -25.15693 0.02248979 -1.271978
              CHANNELS 3 Zrotation Xrotation Yrotation
              End Site
              {
                OFFSET -15 0 0
              }
            }
          }
        }
      }
      JOINT left_manubrium
      {
        OFFSET 5.722621 16.35077 3.967754
        CHANNELS 3 Zrotation Xrotation Yrotation
        JOINT left_clavicle
        {
          OFFSET 13.16364 1.694482 -4.693211
          CHANNELS 3 Zrotation Xrotation Yrotation
          JOINT left_humerus
          {
            OFFSET 29.39168 -1.063119 -2.237045
            CHANNELS 3 Zrotation Xrotation Yrotation
            JOINT left_radius
            {
              OFFSET 24.59957 -0.9528479 0.9047498
              CHANNELS 3 Zrotation Xrotation Yrotation
              End Site
              {
                OFFSET 15 -0 -0
              }
            }
          }
        }
      }
    }
  }
}
MOTION
Frames: 9
Frame Time: 0.0416666666667
0 103.5113 0 1.610648 -0.7713993 0.06884299 3.835327 -14.83168 11.31051 -0 34.72228 -0 -2.871911 -18.80456 -3.025946 -7.170844 9.094089 -21.07868 -0 3.652041 -0 20.5255 -8.38256 27.58967 -2.291768 -1.606306 4.889201 2.655419 10.28683 -7.052843 1.73359 21.65853 6.285679 3.047653 -25.02464 9.420912 5.396815 -18.49884 11.26417 87.27159 37.17207 -18.91746 -0 0 12.86358 -7.208495 8.464512 3.98544 5.495419 -20.496 -2.397696 -91.97471 21.41742 20.46198 0 0 -15.81093 14.08599 14.29463 -1.50615
0.6006969 103.4186 1.800604 1.282071 0.4269714 0.1119605 4.665192 -18.07262 12.15506 -0 34.64283 -0 -2.772248 -18.72875 -3.167995 -7.24446 9.610988 -21.34907 -0 4.302865 -0 20.75772 -9.47229 28.13584 -2.598498 -1.405699 4.7146 3.058899 10.23762 -7.252973 1.813962 21.62811 6.182745 2.823439 -25.46804 9.607092 5.299035 -18.53377 11.30899 87.5798 37.91057 -19.10872 -0 0 12.41095 -6.071816 8.162114 3.642217 5.180222 -20.39836 -2.619057 -91.15403 21.35858 19.47541 0 0 -17.70428 14.75978 13.74444 -2.272689
1.02483 103.1256 3.919812 1.187233 -0.1483244 0.1793546 4.693837 -20.05335 8.99456 -0 31.75479 -0 -5.235297 -14.6597 -2.58069 -7.467708 10.72497 -20.50468 -0 6.895774 -0 17.98897 -12.61987 27.43157 -2.338033 -1.152815 4.442958 2.991737 10.23754 -7.220257 1.734388 21.59658 6.264576 2.919977 -25.38142 9.451607 5.373026 -18.07741 11.39695 87.57087 37.71698 -19.23701 -0 0 11.73889 -6.946408 8.439786 4.369146 5.097066 -20.28403 -2.763889 -90.4295 21.37661 18.62869 0 0 -18.13732 14.06072 13.00444 -1.705187
1.353561 102.8238 6.211972 0.876233 0.4300332 0.2417952 5.121266 -22.82398 8.24241 -0 30.22152 -0 -5.851774 -13.01539 -2.431389 -7.436507 11.48428 -20.27201 -0 7.71829 -0 16.14195 -14.86503 26.96185 -2.167739 -1.004221 4.320824 2.89226 10.25773 -7.168141 1.681074 21.5886 6.323483 3.020221 -25.23564 9.321368 5.391046 -17.82659 11.43182 87.57913 37.57433 -19.26492 -0 0 11.38866 -7.599391 8.598152 4.787162 5.097516 -20.26717 -2.852509 -90.06367 21.2498 18.20963 0 0 -18.18761 13.71968 12.60764 -1.447474
1.615254 102.5084 8.691376 0.454537 1.400664 0.3408296 5.810144 -25.94048 8.223711 -0 28.6766 -0 -6.025361 -11.87553 -2.389827 -7.279853 12.09352 -20.05533 -0 8.267605 -0 14.76434 -16.65608 26.45023 -2.038682 -0.9202079 4.219574 2.85663 10.26979 -7.16737 1.641266 21.56466 6.344942 3.057857 -25.16007 9.220722 5.438357 -17.62731 11.47527 87.56242 37.38008 -19.36052 -0 0 11.14117 -8.027801 8.737967 5.113392 5.065452 -20.23013 -2.905537 -89.81627 21.31405 17.9279 0 0 -18.27816 13.26908 12.32742 -1.018456
1.827345 102.172 11.42469 -0.02179443 2.443511 0.5007858 6.617756 -28.99373 8.383183 -0 26.8797 -0 -6.144096 -10.70307 -2.320986 -7.026546 12.64476 -19.71375 -0 8.91524 -0 13.49829 -18.08346 25.70772 -1.939982 -0.8528091 4.151043 2.818207 10.28425 -7.16046 1.609702 21.54879 6.362277 3.094854 -25.08101 9.134088 5.465892 -17.48134 11.50487 87.55492 37.2331 -19.41974 -0 0 10.96084 -8.381292 8.839964 5.35889 5.048668 -20.21385 -2.950285 -89.63083 21.32686 17.7201 0 0 -18.32081 12.94716 12.11295 -0.7153639
2.003804 101.8203 14.49243 -0.5369866 3.43084 0.7391061 7.470316 -31.71168 8.569626 -0 24.93034 -0 -6.315958 -9.411147 -2.193591 -6.671842 13.17289 -19.24187 -0 9.889419 -0 12.13338 -19.08161 24.62032 -1.861584 -0.8104554 4.094266 2.805994 10.29604 -7.173894 1.582973 21.52626 6.366168 3.108036 -25.03432 9.061163 5.500588 -17.3648 11.53679 87.5425 37.08078 -19.50231 -0 0 10.82726 -8.635049 8.928575 5.558782 5.018849 -20.19353 -2.982875 -89.49188 21.40434 17.57042 0 0 -18.38937 12.6035 11.94155 -0.3670155
2.156021 101.4728 17.96847 -1.077672 4.23404 1.064113 8.272634 -33.76031 8.667977 -0 23.04886 -0 -6.60118 -8.066037 -2.017457 -6.204112 13.66004 -18.6666 -0 11.45911 -0 10.43835 -19.54121 23.08086 -1.797336 -0.7778944 4.051943 2.795637 10.30804 -7.186689 1.560249 21.50648 6.367091 3.11811 -24.99229 8.996695 5.529004 -17.27334 11.56345 87.53176 36.94802 -19.57187 -0 0 10.72732 -8.845241 9.000944 5.721009 4.993176 -20.17977 -3.009996 -89.38561 21.47214 17.45971 0 0 -18.43959 12.30888 11.8035 -0.06353148
2.293906 101.1713 21.90662 -1.624434 4.720047 1.464536 8.914445 -34.78688 8.550549 -0 21.46422 -0 -7.04393 -6.828121 -1.824058 -5.621701 14.01099 -18.00305 -0 13.98384 -0 8.253123 -19.31195 21.02825 -1.742836 -0.7570704 4.017842 2.795034 10.31949 -7.207018 1.539662 21.48444 6.362412 3.118971 -24.96393 8.938314 5.559162 -17.19916 11.59011 87.51902 36.81629 -19.64775 -0 0 10.65457 -9.009909 9.065275 5.858672 4.962986 -20.16617 -3.031549 -89.30628 21.56482 17.38316 0 0 -18.49346 12.01255 11.68904 0.2526105
